<svg width="26" height="20" viewBox="0 0 26 20" fill="none" xmlns="http://www.w3.org/2000/svg">
<path d="M13 14.625C12.1606 14.625 11.3212 14.3497 10.6052 13.7917L0 5.54531V17.0625C0 18.4082 1.09129 19.5 2.4375 19.5H23.5625C24.9087 19.5 26 18.4087 26 17.0625V5.54531L15.3969 13.7973C14.6809 14.3508 13.8379 14.625 13 14.625ZM0.827227 4.12852L11.603 12.5125C12.4252 13.1523 13.5769 13.1523 14.399 12.5125L25.1748 4.12852C25.6496 3.72227 26 3.09766 26 2.4375C26 1.09129 24.9082 0 23.5625 0H2.4375C1.09129 0 0 1.09129 0 2.4375C0 3.09766 0.305195 3.72227 0.827227 4.12852Z" fill="#80807F"/>
</svg>
