<svg width="27" height="27" viewBox="0 0 27 27" fill="none" xmlns="http://www.w3.org/2000/svg">
<path d="M11.417 19.5145C7.93651 19.0838 5.48436 16.5267 5.48436 13.216C5.48436 11.8702 5.95898 10.4167 6.75 9.44769C6.40724 8.55945 6.45997 6.6753 6.85546 5.89472C7.91015 5.76014 9.33398 6.32537 10.1777 7.10595C11.1797 6.78296 12.2344 6.62147 13.5264 6.62147C14.8184 6.62147 15.8731 6.78296 16.8223 7.07904C17.6397 6.32537 19.0899 5.76014 20.1445 5.89472C20.5137 6.62147 20.5664 8.50562 20.2236 9.42078C21.0674 10.4436 21.5156 11.8164 21.5156 13.216C21.5156 16.5267 19.0635 19.03 15.5303 19.4876C16.4267 20.0797 17.0332 21.3717 17.0332 22.8521V25.6514C17.0332 26.4589 17.6924 26.9165 18.4834 26.5935C23.2559 24.7363 27 19.8644 27 13.8351C27 6.21771 20.9356 6.71172e-08 13.4736 0C6.01171 -6.71172e-08 6.57478e-08 6.21771 0 13.8351C-5.15758e-08 19.8105 3.71776 24.7632 8.72753 26.6204C9.43945 26.8896 10.125 26.4051 10.125 25.6784V23.525C9.75587 23.6865 9.28125 23.7942 8.85936 23.7942C7.11913 23.7942 6.09081 22.8252 5.35253 21.0218C5.0625 20.2951 4.7461 19.8644 4.13965 19.7836C3.82325 19.7567 3.71776 19.6221 3.71776 19.4606C3.71776 19.1376 4.24512 18.8954 4.77247 18.8954C5.53712 18.8954 6.19628 19.3799 6.88183 20.3758C7.40919 21.1564 7.96288 21.5063 8.62206 21.5063C9.28125 21.5063 9.70311 21.264 10.3096 20.645C10.7578 20.1874 11.1006 19.7836 11.417 19.5145Z" fill="#80807F"/>
</svg>
